<?xml version="1.0" encoding="UTF-8"?>
<svg width="689px" height="347px" viewBox="0 0 689 347" version="1.1" xmlns="http://www.w3.org/2000/svg" xmlns:xlink="http://www.w3.org/1999/xlink">
    <title>new logo</title>
    <g id="New-Design" stroke="none" stroke-width="1" fill="none" fill-rule="evenodd">
        <g id="Intro-Page-Desktop" transform="translate(-374.000000, -307.000000)">
            <g id="Group" transform="translate(371.874710, 287.000000)">
                <g transform="translate(0.000000, -9.000000)">
                    <polygon id="M" fill="#1875D1" fill-rule="nonzero" points="551.458984 376 551.458984 211.927734 579.149414 376 620.038086 376 646.175781 211.927734 646.175781 376 687.84082 376 687.84082 148.265625 617.838379 148.265625 598.817383 287.105957 579.666992 148.265625 510.311523 148.265625 510.311523 376"></polygon>
                    <path d="M104.162598,376 L104.162598,331.617676 L56.4160156,331.617676 L56.4160156,279.47168 L99.375,279.47168 L99.375,236.64209 L56.4160156,236.64209 L56.4160156,192.259766 L101.186523,192.259766 L101.186523,148.265625 L10.0927734,148.265625 L10.0927734,376 L104.162598,376 Z M160.319824,376 L160.319824,211.927734 L188.010254,376 L228.898926,376 L255.036621,211.927734 L255.036621,376 L296.70166,376 L296.70166,148.265625 L226.699219,148.265625 L207.678223,287.105957 L188.527832,148.265625 L119.172363,148.265625 L119.172363,376 L160.319824,376 Z" id="EM" fill="#1875D1" fill-rule="nonzero"></path>
                    <path d="M49.863,123 L69.513,77.019 L89.032,123 L97.154,123 L136.585,29.99 L126.629,29.99 L92.962,112.389 L75.146,70.338 L91.39,30.645 L82.613,30.645 L69.382,63.657 L56.282,30.645 L47.636,30.645 L63.88,70.338 L46.195,112.389 L12.397,29.99 L2.572,29.99 L41.872,123 L49.863,123 Z M158.855,123 L158.855,29.99 L149.685,29.99 L149.685,123 L158.855,123 Z M245.053,123 L245.053,114.878 L191.343,114.878 L191.343,29.99 L182.173,29.99 L182.173,123 L245.053,123 Z M290.117,123 C299.199667,123 307.0815,121.078667 313.7625,117.236 C320.4435,113.393333 325.596167,107.978667 329.2205,100.992 C332.844833,94.0053333 334.657,85.796 334.657,76.364 C334.657,67.8053333 332.997667,60.0108333 329.679,52.9805 C326.360333,45.9501667 321.404167,40.3608333 314.8105,36.2125 C308.216833,32.0641667 299.985667,29.99 290.117,29.99 L290.117,29.99 L258.546,29.99 L258.546,123 L290.117,123 Z M290.117,114.878 L267.716,114.878 L267.716,38.112 L290.117,38.112 C297.715,38.112 304.134,39.7495 309.374,43.0245 C314.614,46.2995 318.6095,50.819 321.3605,56.583 C324.1115,62.347 325.487,68.9406667 325.487,76.364 C325.487,83.6126667 324.133333,90.1408333 321.426,95.9485 C318.718667,101.756167 314.745,106.363 309.505,109.769 C304.265,113.175 297.802333,114.878 290.117,114.878 L290.117,114.878 Z M389.546,123.786 C394.262,123.786 399.087167,122.956333 404.0215,121.297 C408.955833,119.637667 413.431667,117.192333 417.449,113.961 C421.466333,110.729667 424.435667,106.799667 426.357,102.171 L426.357,102.171 L418.759,98.241 C416.837667,102.258333 414.283167,105.533333 411.0955,108.066 C407.907833,110.598667 404.48,112.476333 400.812,113.699 C397.144,114.921667 393.563333,115.533 390.07,115.533 C385.092,115.533 380.485167,114.463167 376.2495,112.3235 C372.013833,110.183833 368.324,107.301833 365.18,103.6775 C362.036,100.053167 359.590667,95.883 357.844,91.167 C356.097333,86.451 355.224,81.5166667 355.224,76.364 C355.224,71.648 355.966333,66.9975 357.451,62.4125 C358.935667,57.8275 361.140833,53.6791667 364.0665,49.9675 C366.992167,46.2558333 370.594667,43.2865 374.874,41.0595 C379.153333,38.8325 384.087667,37.719 389.677,37.719 C393.083,37.719 396.510833,38.243 399.9605,39.291 C403.410167,40.339 406.663333,42.0638333 409.72,44.4655 C412.776667,46.8671667 415.309333,50.1203333 417.318,54.225 L417.318,54.225 L424.523,49.771 C421.728333,43.8323333 417.3835,38.9635 411.4885,35.1645 C405.5935,31.3655 398.497667,29.466 390.201,29.466 C383.214333,29.466 376.97,30.7978333 371.468,33.4615 C365.966,36.1251667 361.337333,39.7058333 357.582,44.2035 C353.826667,48.7011667 350.9665,53.6791667 349.0015,59.1375 C347.0365,64.5958333 346.054,70.1633333 346.054,75.84 C346.054,81.6913333 347.102,87.4771667 349.198,93.1975 C351.294,98.9178333 354.285167,104.0705 358.1715,108.6555 C362.057833,113.2405 366.664667,116.9085 371.992,119.6595 C377.319333,122.4105 383.170667,123.786 389.546,123.786 Z M440.505,123 L452.426,93.918 L494.215,93.918 L506.267,123 L515.961,123 L477.316,29.99 L469.587,29.99 L430.68,123 L440.505,123 Z M492.119,86.713 L454.391,86.713 L473.386,40.732 L492.119,86.713 Z M538.493,123 L538.493,88.678 L566.003,88.678 L587.88,123 L598.229,123 L575.435,87.106 C579.627,86.2326667 583.273167,84.4423333 586.3735,81.735 C589.473833,79.0276667 591.8755,75.709 593.5785,71.779 C595.2815,67.849 596.133,63.657 596.133,59.203 C596.133,55.6223333 595.456167,52.1071667 594.1025,48.6575 C592.748833,45.2078333 590.8275,42.0638333 588.3385,39.2255 C585.8495,36.3871667 582.945667,34.1383333 579.627,32.479 C576.308333,30.8196667 572.640333,29.99 568.623,29.99 L568.623,29.99 L529.323,29.99 L529.323,123 L538.493,123 Z M568.885,80.556 L538.493,80.556 L538.493,38.112 L568.099,38.112 C571.592333,38.112 574.758167,39.0945 577.5965,41.0595 C580.434833,43.0245 582.7055,45.6008333 584.4085,48.7885 C586.1115,51.9761667 586.963,55.4476667 586.963,59.203 C586.963,62.871 586.220667,66.3425 584.736,69.6175 C583.251333,72.8925 581.155333,75.5343333 578.448,77.543 C575.740667,79.5516667 572.553,80.556 568.885,80.556 L568.885,80.556 Z M646.437,123 C655.519667,123 663.4015,121.078667 670.0825,117.236 C676.7635,113.393333 681.916167,107.978667 685.5405,100.992 C689.164833,94.0053333 690.977,85.796 690.977,76.364 C690.977,67.8053333 689.317667,60.0108333 685.999,52.9805 C682.680333,45.9501667 677.724167,40.3608333 671.1305,36.2125 C664.536833,32.0641667 656.305667,29.99 646.437,29.99 L646.437,29.99 L614.866,29.99 L614.866,123 L646.437,123 Z M646.437,114.878 L624.036,114.878 L624.036,38.112 L646.437,38.112 C654.035,38.112 660.454,39.7495 665.694,43.0245 C670.934,46.2995 674.9295,50.819 677.6805,56.583 C680.4315,62.347 681.807,68.9406667 681.807,76.364 C681.807,83.6126667 680.453333,90.1408333 677.746,95.9485 C675.038667,101.756167 671.065,106.363 665.825,109.769 C660.585,113.175 654.122333,114.878 646.437,114.878 L646.437,114.878 Z" id="WILDCARD" fill="#242C4A" fill-rule="nonzero"></path>
                    <line x1="15.5" y1="133.5" x2="687.5" y2="133.5" id="Line-2" stroke="#242C4A" stroke-width="5" stroke-linecap="square"></line>
                    <g id="cards" transform="translate(285.193179, 128.455470)">
                        <g id="Group" transform="translate(121.041210, 132.992727) rotate(-29.000000) translate(-121.041210, -132.992727) translate(42.937097, 24.228768)" fill="#767676">
                            <path d="M126.689756,210.212156 L29.5177293,210.212156 C19.786842,210.212156 11.869724,202.306296 11.869724,192.590153 L11.869724,24.9377644 C11.869724,15.221622 19.7861023,7.31576197 29.5177293,7.31576197 L126.689756,7.31576197 C136.420643,7.31576197 144.338501,15.221622 144.338501,24.9377644 L144.338501,192.590153 C144.338501,202.306296 136.420643,210.212156 126.689756,210.212156 Z" id="Shape" transform="translate(78.104113, 108.763959) rotate(7.000000) translate(-78.104113, -108.763959) "></path>
                        </g>
                        <g id="Group" transform="translate(53.306821, 31.544530)">
                            <path d="M0,139 L133.5,70.5 L133.5,18 C133.5,8.0588745 125.441125,-8.93158249e-15 115.5,0 L18,0 C8.0588745,1.82615513e-15 -1.21743675e-15,8.0588745 0,18 L0,139 L0,139 Z" id="Path-3" fill="#EBECED"></path>
                            <path d="M0,139 L0,185 C1.21743675e-15,194.941125 8.0588745,203 18,203 L115.5,203 C125.441125,203 133.5,194.941125 133.5,185 L133.5,70.5 L133.5,70.5 L0,139 Z" id="Path-4" fill="#D8D8D8"></path>
                            <path d="M115.628867,0.715549091 C120.388094,0.715549091 124.704019,2.63540898 127.830097,5.73518954 C130.954639,8.83344605 132.890567,13.1107575 132.890567,17.8278291 L132.890567,17.8278291 L132.890567,185.38772 C132.890567,190.104792 130.954639,194.382103 127.830097,197.48036 C124.704019,200.58014 120.388094,202.5 115.628867,202.5 L115.628867,202.5 L17.8349222,202.5 C13.0757536,202.5 8.76005695,200.580185 5.63417232,197.480467 C2.50975116,194.3822 0.573966667,190.104844 0.573966667,185.38772 L0.573966667,185.38772 L0.573966667,17.8278291 C0.573966667,13.1106151 2.50963982,8.83318236 5.6340765,5.7349001 C8.75985719,2.63528507 13.0754829,0.715549091 17.8349222,0.715549091 L17.8349222,0.715549091 Z" id="Shape" stroke="#767676"></path>
                        </g>
                    </g>
                    <g id="icon" transform="translate(350.866337, 189.417989)" fill="#1875D1">
                        <path d="M55.0037101,125.170444 C54.3524434,118.612355 51.4217434,111.163661 46.7407642,104.241233 C42.1818975,97.4807337 37.90796,92.6633719 21.1378432,75.4989902 C9.04870567,63.1114883 3.79786814,55.9461686 1.23350562,48.2545825 C-2.22634857,37.9721463 1.80336396,25.1798241 10.6768723,18.2169145 C15.6834849,14.2496754 21.5041807,12.2255737 27.8540308,12.1850917 C32.53501,12.1850917 35.7506392,12.9542503 40.4316184,15.2212441 C44.5020351,17.2048637 49.3458309,21.6983693 51.4624476,25.4227163 C52.1951226,26.7181413 52.8463893,27.6897101 52.9277976,27.608746 C53.0092059,27.527782 52.6021643,26.2323569 52.0730101,24.6535577 C48.5317476,14.8973879 42.4261225,7.81303223 34.2038808,3.84579307 C30.4998016,2.06458365 25.5745974,0.607230484 23.2951641,0.607230484 C22.4810808,0.607230484 21.7077016,0.485784387 21.6262932,0.323856258 C21.5041807,0.121446097 36.7682433,0 55.5328643,0 C74.2974852,0 89.602252,0.0404820323 89.5208437,0.121446097 C89.4801395,0.202410161 88.2183103,0.404820323 86.7122562,0.647712516 C83.4559228,1.09301487 79.8739561,2.26699381 76.0884686,4.12916729 C68.0697477,8.09640646 62.1676435,14.8569058 58.5856768,24.3297014 C57.161031,28.0540484 57.3238476,28.3374226 59.0741268,25.3417522 C64.4470768,16.354741 75.8035394,10.8087026 85.8574686,12.3065378 C92.7364729,13.3185886 97.8244937,15.9499207 102.627585,20.9696927 C107.349269,25.9085007 109.913631,31.8593594 110.361377,38.7008229 C111.134756,51.0478427 106.08744,59.3871414 84.8398645,80.9640646 C78.8970561,86.9554053 72.7100227,93.3920485 71.0818561,95.2137399 C61.4349685,106.224853 56.5504685,115.73813 55.5735685,125.4943 L55.2886393,128.328042 L55.0037101,125.170444 Z" id="Path" transform="translate(55.217822, 64.164021) rotate(180.000000) translate(-55.217822, -64.164021) "></path>
                    </g>
                </g>
            </g>
        </g>
    </g>
</svg>